<svg id="mermaid-r2u" width="100%" xmlns="http://www.w3.org/2000/svg" style="max-width: 700px;" viewBox="0 0 700 500" role="graphics-document document" aria-roledescription="xychart"><g></g><g class="main"><rect width="700" height="500" class="background" fill="white"></rect><g class="chart-title"><text x="0" y="0" fill="#131300" font-size="20" dominant-baseline="middle" text-anchor="middle" transform="translate(350, 21.75) rotate(0)">当前估值对比</text></g><g class="plot"><g class="bar-plot-0"><rect x="62.68183135986328" y="80.941864151001" width="95" height="386.0581663665771" fill="#ECECFF" stroke="#ECECFF" stroke-width="0"></rect><rect x="242.62122090657556" y="416.4162893981934" width="95" height="50.58374111938474" fill="#ECECFF" stroke="#ECECFF" stroke-width="0"></rect><rect x="422.5606104532878" y="410.2019134674072" width="95" height="56.7981170501709" fill="#ECECFF" stroke="#ECECFF" stroke-width="0"></rect><rect x="602.5" y="209.40625839233397" width="95" height="257.5937721252442" fill="#ECECFF" stroke="#ECECFF" stroke-width="0"></rect></g><g class="bar-plot-1"><rect x="62.68183135986328" y="299.260021850586" width="95" height="167.74000866699214" fill="#8493A6" stroke="#8493A6" stroke-width="0"></rect><rect x="242.62122090657556" y="437.60629257202146" width="95" height="29.393737945556666" fill="#8493A6" stroke="#8493A6" stroke-width="0"></rect><rect x="422.5606104532878" y="443.9225435180664" width="95" height="23.077486999511734" fill="#8493A6" stroke="#8493A6" stroke-width="0"></rect><rect x="602.5" y="366.2937818908691" width="95" height="100.706248626709" fill="#8493A6" stroke="#8493A6" stroke-width="0"></rect></g></g><g class="bottom-axis"><g class="axis-line"><path d="M 60.18183135986328,468.0000305175781 L 700,468.0000305175781" fill="none" stroke="#131300" stroke-width="2"></path></g><g class="label"><text x="0" y="0" fill="#131300" font-size="14" dominant-baseline="text-before-edge" text-anchor="middle" transform="translate(110.18183135986328, 479.0000305175781) rotate(0)">PE</text><text x="0" y="0" fill="#131300" font-size="14" dominant-baseline="text-before-edge" text-anchor="middle" transform="translate(290.12122090657556, 479.0000305175781) rotate(0)">PB</text><text x="0" y="0" fill="#131300" font-size="14" dominant-baseline="text-before-edge" text-anchor="middle" transform="translate(470.0606104532878, 479.0000305175781) rotate(0)">PS</text><text x="0" y="0" fill="#131300" font-size="14" dominant-baseline="text-before-edge" text-anchor="middle" transform="translate(650, 479.0000305175781) rotate(0)">EV_EBITDA</text></g><g class="ticks"><path d="M 110.18183135986328,469.0000305175781 L 110.18183135986328,474.0000305175781" fill="none" stroke="#131300" stroke-width="2"></path><path d="M 290.12122090657556,469.0000305175781 L 290.12122090657556,474.0000305175781" fill="none" stroke="#131300" stroke-width="2"></path><path d="M 470.0606104532878,469.0000305175781 L 470.0606104532878,474.0000305175781" fill="none" stroke="#131300" stroke-width="2"></path><path d="M 650,469.0000305175781 L 650,474.0000305175781" fill="none" stroke="#131300" stroke-width="2"></path></g></g><g class="left-axis"><g class="axisl-line"><path d="M 59.18183135986328,43.5 L 59.18183135986328,467.0000305175781" fill="none" stroke="#131300" stroke-width="2"></path></g><g class="label"><text x="0" y="0" fill="#131300" font-size="14" dominant-baseline="middle" text-anchor="end" transform="translate(48.18183135986328, 51.49998474121094) rotate(0)">40</text><text x="0" y="0" fill="#131300" font-size="14" dominant-baseline="middle" text-anchor="end" transform="translate(48.18183135986328, 102.43749237060547) rotate(0)">35</text><text x="0" y="0" fill="#131300" font-size="14" dominant-baseline="middle" text-anchor="end" transform="translate(48.18183135986328, 153.375) rotate(0)">30</text><text x="0" y="0" fill="#131300" font-size="14" dominant-baseline="middle" text-anchor="end" transform="translate(48.18183135986328, 204.31250762939453) rotate(0)">25</text><text x="0" y="0" fill="#131300" font-size="14" dominant-baseline="middle" text-anchor="end" transform="translate(48.18183135986328, 255.25001525878906) rotate(0)">20</text><text x="0" y="0" fill="#131300" font-size="14" dominant-baseline="middle" text-anchor="end" transform="translate(48.18183135986328, 306.1875228881836) rotate(0)">15</text><text x="0" y="0" fill="#131300" font-size="14" dominant-baseline="middle" text-anchor="end" transform="translate(48.18183135986328, 357.1250305175781) rotate(0)">10</text><text x="0" y="0" fill="#131300" font-size="14" dominant-baseline="middle" text-anchor="end" transform="translate(48.18183135986328, 408.06253814697266) rotate(0)">5</text><text x="0" y="0" fill="#131300" font-size="14" dominant-baseline="middle" text-anchor="end" transform="translate(48.18183135986328, 459.0000457763672) rotate(0)">0</text></g><g class="ticks"><path d="M 58.18183135986328,51.49998474121094 L 53.18183135986328,51.49998474121094" fill="none" stroke="#131300" stroke-width="2"></path><path d="M 58.18183135986328,102.43749237060547 L 53.18183135986328,102.43749237060547" fill="none" stroke="#131300" stroke-width="2"></path><path d="M 58.18183135986328,153.375 L 53.18183135986328,153.375" fill="none" stroke="#131300" stroke-width="2"></path><path d="M 58.18183135986328,204.31250762939453 L 53.18183135986328,204.31250762939453" fill="none" stroke="#131300" stroke-width="2"></path><path d="M 58.18183135986328,255.25001525878906 L 53.18183135986328,255.25001525878906" fill="none" stroke="#131300" stroke-width="2"></path><path d="M 58.18183135986328,306.1875228881836 L 53.18183135986328,306.1875228881836" fill="none" stroke="#131300" stroke-width="2"></path><path d="M 58.18183135986328,357.1250305175781 L 53.18183135986328,357.1250305175781" fill="none" stroke="#131300" stroke-width="2"></path><path d="M 58.18183135986328,408.06253814697266 L 53.18183135986328,408.06253814697266" fill="none" stroke="#131300" stroke-width="2"></path><path d="M 58.18183135986328,459.0000457763672 L 53.18183135986328,459.0000457763672" fill="none" stroke="#131300" stroke-width="2"></path></g><g class="title"><text x="0" y="0" fill="#131300" font-size="16" dominant-baseline="text-before-edge" text-anchor="middle" transform="translate(5, 255.25001525878906) rotate(270)">倍数</text></g></g></g><g class="mermaid-tmp-group"></g></svg>