<svg id="mermaid-r2l" width="100%" xmlns="http://www.w3.org/2000/svg" style="max-width: 700px;" viewBox="0 0 700 500" role="graphics-document document" aria-roledescription="xychart"><g></g><g class="main"><rect width="700" height="500" class="background" fill="white"></rect><g class="chart-title"><text x="0" y="0" fill="#131300" font-size="20" dominant-baseline="middle" text-anchor="middle" transform="translate(350, 21.75) rotate(0)">研发投入占比趋势对比</text></g><g class="plot"><g class="line-plot-0"><path d="M74.705,135.988L380.091,106.92L685.477,115.613" fill="none" stroke="#ECECFF" stroke-width="2"></path></g><g class="line-plot-1"><path d="M74.705,266.66L380.091,267.475L685.477,267.475" fill="none" stroke="#8493A6" stroke-width="2"></path></g></g><g class="bottom-axis"><g class="axis-line"><path d="M 60.18183135986328,468.0000305175781 L 700,468.0000305175781" fill="none" stroke="#131300" stroke-width="2"></path></g><g class="label"><text x="0" y="0" fill="#131300" font-size="14" dominant-baseline="text-before-edge" text-anchor="middle" transform="translate(74.70453262329102, 479.0000305175781) rotate(0)">2023</text><text x="0" y="0" fill="#131300" font-size="14" dominant-baseline="text-before-edge" text-anchor="middle" transform="translate(380.09091567993164, 479.0000305175781) rotate(0)">2024</text><text x="0" y="0" fill="#131300" font-size="14" dominant-baseline="text-before-edge" text-anchor="middle" transform="translate(685.4772987365723, 479.0000305175781) rotate(0)">2025</text></g><g class="ticks"><path d="M 74.70453262329102,469.0000305175781 L 74.70453262329102,474.0000305175781" fill="none" stroke="#131300" stroke-width="2"></path><path d="M 380.09091567993164,469.0000305175781 L 380.09091567993164,474.0000305175781" fill="none" stroke="#131300" stroke-width="2"></path><path d="M 685.4772987365723,469.0000305175781 L 685.4772987365723,474.0000305175781" fill="none" stroke="#131300" stroke-width="2"></path></g></g><g class="left-axis"><g class="axisl-line"><path d="M 59.18183135986328,43.5 L 59.18183135986328,467.0000305175781" fill="none" stroke="#131300" stroke-width="2"></path></g><g class="label"><text x="0" y="0" fill="#131300" font-size="14" dominant-baseline="middle" text-anchor="end" transform="translate(48.18183135986328, 78.66665547688801) rotate(0)">14</text><text x="0" y="0" fill="#131300" font-size="14" dominant-baseline="middle" text-anchor="end" transform="translate(48.18183135986328, 132.99999694824217) rotate(0)">12</text><text x="0" y="0" fill="#131300" font-size="14" dominant-baseline="middle" text-anchor="end" transform="translate(48.18183135986328, 187.33333841959637) rotate(0)">10</text><text x="0" y="0" fill="#131300" font-size="14" dominant-baseline="middle" text-anchor="end" transform="translate(48.18183135986328, 241.66667989095052) rotate(0)">8</text><text x="0" y="0" fill="#131300" font-size="14" dominant-baseline="middle" text-anchor="end" transform="translate(48.18183135986328, 296.00002136230466) rotate(0)">6</text><text x="0" y="0" fill="#131300" font-size="14" dominant-baseline="middle" text-anchor="end" transform="translate(48.18183135986328, 350.33336283365884) rotate(0)">4</text><text x="0" y="0" fill="#131300" font-size="14" dominant-baseline="middle" text-anchor="end" transform="translate(48.18183135986328, 404.66670430501307) rotate(0)">2</text><text x="0" y="0" fill="#131300" font-size="14" dominant-baseline="middle" text-anchor="end" transform="translate(48.18183135986328, 459.0000457763672) rotate(0)">0</text></g><g class="ticks"><path d="M 58.18183135986328,78.66665547688801 L 53.18183135986328,78.66665547688801" fill="none" stroke="#131300" stroke-width="2"></path><path d="M 58.18183135986328,132.99999694824217 L 53.18183135986328,132.99999694824217" fill="none" stroke="#131300" stroke-width="2"></path><path d="M 58.18183135986328,187.33333841959637 L 53.18183135986328,187.33333841959637" fill="none" stroke="#131300" stroke-width="2"></path><path d="M 58.18183135986328,241.66667989095052 L 53.18183135986328,241.66667989095052" fill="none" stroke="#131300" stroke-width="2"></path><path d="M 58.18183135986328,296.00002136230466 L 53.18183135986328,296.00002136230466" fill="none" stroke="#131300" stroke-width="2"></path><path d="M 58.18183135986328,350.33336283365884 L 53.18183135986328,350.33336283365884" fill="none" stroke="#131300" stroke-width="2"></path><path d="M 58.18183135986328,404.66670430501307 L 53.18183135986328,404.66670430501307" fill="none" stroke="#131300" stroke-width="2"></path><path d="M 58.18183135986328,459.0000457763672 L 53.18183135986328,459.0000457763672" fill="none" stroke="#131300" stroke-width="2"></path></g><g class="title"><text x="0" y="0" fill="#131300" font-size="16" dominant-baseline="text-before-edge" text-anchor="middle" transform="translate(5, 255.25001525878906) rotate(270)">%</text></g></g></g><g class="mermaid-tmp-group"></g></svg>